<svg class="brxe-svg" id="brxe-hmtbbp" xmlns="http://www.w3.org/2000/svg" xmlns:xlink="http://www.w3.org/1999/xlink" version="1.1" x="0px" y="0px" viewBox="0 0 262.5 262.5" style="enable-background:new 0 0 262.5 262.5;" xml:space="preserve">
  <g>
    <g transform="translate(0, 31.25)">
      <path fill="rgb(255, 255, 255)" d="M72.4,93.5c-18.8,0-34.1,15.3-34.1,34.1c0,18.8,15.3,34.1,34.1,34.1c8.7,0,16.6-3.4,22.6-8.8v8.8h11.5v-34.1 C106.5,108.8,91.2,93.5,72.4,93.5 M72.4,150.2c-12.5,0-22.6-10.1-22.6-22.6c0-12.5,10.1-22.6,22.6-22.6 c12.5,0,22.6,10.1,22.6,22.6C95,140,84.8,150.2,72.4,150.2"/>
      <rect fill="rgb(255, 255, 255)" x="119.1" y="112.4" width="11.5" height="49.2"/>
      <path fill="rgb(255, 255, 255)" d="M124.8,105.9c3.5,0,6.3-2.8,6.3-6.3c0-3.5-2.8-6.3-6.3-6.3c-3.5,0-6.3,2.8-6.3,6.3C118.5,103.1,121.3,105.9,124.8,105.9"/>
      <rect fill="rgb(255, 255, 255)" x="250.4" y="112.4" width="11.5" height="49.2"/>
      <path fill="rgb(255, 255, 255)" d="M256.2,105.9c3.5,0,6.3-2.8,6.3-6.3c0-3.5-2.8-6.3-6.3-6.3c-3.5,0-6.3,2.8-6.3,6.3C249.9,103.1,252.7,105.9,256.2,105.9"/>
      <path fill="rgb(255, 255, 255)" d="M177.2,93.9c-8.4,0-16.1,3.7-21.9,9.7V93.5h-11.5v68.1h11.5v-35.1c0-12.7,11-21.9,21.9-21.9h2.6V93.9H177.2z"/>
      <path fill="rgb(255, 255, 255)" d="M216,93.2h-7.1v12.1h7v56.3h11.5v-56.3h12.2V93.2h-12.2c0-11.2,6-14.8,15.8-14.8V66.9C227.2,66.9,216.2,77.2,216,93.2"/>
      <path fill="rgb(255, 255, 255)" d="M199.9,200H52.3c-28.9,0-52.4-23.5-52.4-52.4V0h200V200z M11.6,11.6v136c0,22.5,18.3,40.7,40.7,40.7h136V11.6H11.6z"/>
    </g>
  </g>
</svg>
